<mxfile host="app.diagrams.net" modified="2021-01-10T04:17:50.379Z" agent="5.0 (Macintosh; Intel Mac OS X 10_14_6) AppleWebKit/605.1.15 (KHTML, like Gecko) Version/13.1.1 Safari/605.1.15" etag="HjzESmfAr18ZYrpjPAMd" version="14.1.8" type="github">
  <diagram id="IH4JS3uvPxnW-8O2jf27" name="Page-1">
    <mxGraphModel dx="891" dy="614" grid="1" gridSize="10" guides="1" tooltips="1" connect="1" arrows="1" fold="1" page="1" pageScale="1" pageWidth="827" pageHeight="1169" math="0" shadow="0">
      <root>
        <mxCell id="0" />
        <mxCell id="1" parent="0" />
        <mxCell id="hUngqLsS5FqLCYvUKCZo-8" style="edgeStyle=orthogonalEdgeStyle;rounded=0;orthogonalLoop=1;jettySize=auto;html=1;exitX=0.5;exitY=1;exitDx=0;exitDy=0;entryX=0.5;entryY=0;entryDx=0;entryDy=0;" edge="1" parent="1" source="hUngqLsS5FqLCYvUKCZo-1" target="hUngqLsS5FqLCYvUKCZo-2">
          <mxGeometry relative="1" as="geometry" />
        </mxCell>
        <mxCell id="hUngqLsS5FqLCYvUKCZo-1" value="用户进入" style="rounded=1;whiteSpace=wrap;html=1;" vertex="1" parent="1">
          <mxGeometry x="260" y="70" width="120" height="60" as="geometry" />
        </mxCell>
        <mxCell id="hUngqLsS5FqLCYvUKCZo-9" style="edgeStyle=orthogonalEdgeStyle;rounded=0;orthogonalLoop=1;jettySize=auto;html=1;exitX=0.5;exitY=1;exitDx=0;exitDy=0;entryX=0.5;entryY=0;entryDx=0;entryDy=0;" edge="1" parent="1" source="hUngqLsS5FqLCYvUKCZo-2" target="hUngqLsS5FqLCYvUKCZo-16">
          <mxGeometry relative="1" as="geometry" />
        </mxCell>
        <mxCell id="hUngqLsS5FqLCYvUKCZo-2" value="获取用户信息：demo，感兴趣垂类" style="rounded=0;whiteSpace=wrap;html=1;" vertex="1" parent="1">
          <mxGeometry x="260" y="150" width="120" height="60" as="geometry" />
        </mxCell>
        <mxCell id="hUngqLsS5FqLCYvUKCZo-21" style="edgeStyle=orthogonalEdgeStyle;rounded=0;orthogonalLoop=1;jettySize=auto;html=1;exitX=0.5;exitY=1;exitDx=0;exitDy=0;entryX=0.5;entryY=0;entryDx=0;entryDy=0;" edge="1" parent="1" source="hUngqLsS5FqLCYvUKCZo-3" target="hUngqLsS5FqLCYvUKCZo-18">
          <mxGeometry relative="1" as="geometry">
            <Array as="points">
              <mxPoint x="185" y="500" />
              <mxPoint x="410" y="500" />
              <mxPoint x="410" y="110" />
              <mxPoint x="525" y="110" />
            </Array>
          </mxGeometry>
        </mxCell>
        <mxCell id="hUngqLsS5FqLCYvUKCZo-3" value="每个垂类Ti：通过cUCB获得top N文案" style="rounded=0;whiteSpace=wrap;html=1;" vertex="1" parent="1">
          <mxGeometry x="125" y="420" width="120" height="60" as="geometry" />
        </mxCell>
        <mxCell id="hUngqLsS5FqLCYvUKCZo-14" style="edgeStyle=orthogonalEdgeStyle;rounded=0;orthogonalLoop=1;jettySize=auto;html=1;exitX=0.5;exitY=1;exitDx=0;exitDy=0;entryX=0.5;entryY=0;entryDx=0;entryDy=0;" edge="1" parent="1" source="hUngqLsS5FqLCYvUKCZo-4" target="hUngqLsS5FqLCYvUKCZo-13">
          <mxGeometry relative="1" as="geometry" />
        </mxCell>
        <mxCell id="hUngqLsS5FqLCYvUKCZo-4" value="文案去重排序" style="rounded=0;whiteSpace=wrap;html=1;" vertex="1" parent="1">
          <mxGeometry x="465" y="330" width="120" height="60" as="geometry" />
        </mxCell>
        <mxCell id="hUngqLsS5FqLCYvUKCZo-10" value="Yes" style="edgeStyle=orthogonalEdgeStyle;rounded=0;orthogonalLoop=1;jettySize=auto;html=1;exitX=0.5;exitY=1;exitDx=0;exitDy=0;entryX=0.5;entryY=0;entryDx=0;entryDy=0;" edge="1" parent="1" source="hUngqLsS5FqLCYvUKCZo-5" target="hUngqLsS5FqLCYvUKCZo-6">
          <mxGeometry relative="1" as="geometry" />
        </mxCell>
        <mxCell id="hUngqLsS5FqLCYvUKCZo-19" style="edgeStyle=orthogonalEdgeStyle;rounded=0;orthogonalLoop=1;jettySize=auto;html=1;exitX=0;exitY=0.5;exitDx=0;exitDy=0;entryX=0.5;entryY=0;entryDx=0;entryDy=0;" edge="1" parent="1" source="hUngqLsS5FqLCYvUKCZo-5" target="hUngqLsS5FqLCYvUKCZo-3">
          <mxGeometry relative="1" as="geometry" />
        </mxCell>
        <mxCell id="hUngqLsS5FqLCYvUKCZo-20" value="No" style="edgeLabel;html=1;align=center;verticalAlign=middle;resizable=0;points=[];" vertex="1" connectable="0" parent="hUngqLsS5FqLCYvUKCZo-19">
          <mxGeometry x="-0.3846" y="1" relative="1" as="geometry">
            <mxPoint as="offset" />
          </mxGeometry>
        </mxCell>
        <mxCell id="hUngqLsS5FqLCYvUKCZo-5" value="在其余文案中是否有未explore的arm？" style="rhombus;whiteSpace=wrap;html=1;" vertex="1" parent="1">
          <mxGeometry x="245" y="310" width="150" height="80" as="geometry" />
        </mxCell>
        <mxCell id="hUngqLsS5FqLCYvUKCZo-22" style="edgeStyle=orthogonalEdgeStyle;rounded=0;orthogonalLoop=1;jettySize=auto;html=1;exitX=0.5;exitY=1;exitDx=0;exitDy=0;entryX=0.5;entryY=0;entryDx=0;entryDy=0;" edge="1" parent="1" source="hUngqLsS5FqLCYvUKCZo-6" target="hUngqLsS5FqLCYvUKCZo-18">
          <mxGeometry relative="1" as="geometry">
            <Array as="points">
              <mxPoint x="320" y="500" />
              <mxPoint x="410" y="500" />
              <mxPoint x="410" y="110" />
              <mxPoint x="525" y="110" />
            </Array>
          </mxGeometry>
        </mxCell>
        <mxCell id="hUngqLsS5FqLCYvUKCZo-6" value="每个垂类Ti：随机挑选文案" style="rounded=0;whiteSpace=wrap;html=1;" vertex="1" parent="1">
          <mxGeometry x="260" y="420" width="120" height="60" as="geometry" />
        </mxCell>
        <mxCell id="hUngqLsS5FqLCYvUKCZo-13" value="结束" style="rounded=1;whiteSpace=wrap;html=1;" vertex="1" parent="1">
          <mxGeometry x="465" y="430" width="120" height="60" as="geometry" />
        </mxCell>
        <mxCell id="hUngqLsS5FqLCYvUKCZo-17" style="edgeStyle=orthogonalEdgeStyle;rounded=0;orthogonalLoop=1;jettySize=auto;html=1;exitX=0.5;exitY=1;exitDx=0;exitDy=0;entryX=0.5;entryY=0;entryDx=0;entryDy=0;" edge="1" parent="1" source="hUngqLsS5FqLCYvUKCZo-16" target="hUngqLsS5FqLCYvUKCZo-5">
          <mxGeometry relative="1" as="geometry" />
        </mxCell>
        <mxCell id="hUngqLsS5FqLCYvUKCZo-16" value="获取全局最热文案topX" style="rounded=0;whiteSpace=wrap;html=1;" vertex="1" parent="1">
          <mxGeometry x="260" y="230" width="120" height="60" as="geometry" />
        </mxCell>
        <mxCell id="hUngqLsS5FqLCYvUKCZo-24" style="edgeStyle=orthogonalEdgeStyle;rounded=0;orthogonalLoop=1;jettySize=auto;html=1;exitX=0.5;exitY=1;exitDx=0;exitDy=0;" edge="1" parent="1" source="hUngqLsS5FqLCYvUKCZo-18" target="hUngqLsS5FqLCYvUKCZo-23">
          <mxGeometry relative="1" as="geometry" />
        </mxCell>
        <mxCell id="hUngqLsS5FqLCYvUKCZo-28" value="No" style="edgeLabel;html=1;align=center;verticalAlign=middle;resizable=0;points=[];" vertex="1" connectable="0" parent="hUngqLsS5FqLCYvUKCZo-24">
          <mxGeometry x="0.4333" y="1" relative="1" as="geometry">
            <mxPoint as="offset" />
          </mxGeometry>
        </mxCell>
        <mxCell id="hUngqLsS5FqLCYvUKCZo-25" style="edgeStyle=orthogonalEdgeStyle;rounded=0;orthogonalLoop=1;jettySize=auto;html=1;exitX=1;exitY=0.5;exitDx=0;exitDy=0;entryX=0.5;entryY=0;entryDx=0;entryDy=0;" edge="1" parent="1" source="hUngqLsS5FqLCYvUKCZo-18" target="hUngqLsS5FqLCYvUKCZo-4">
          <mxGeometry relative="1" as="geometry">
            <Array as="points">
              <mxPoint x="610" y="170" />
              <mxPoint x="610" y="310" />
              <mxPoint x="525" y="310" />
            </Array>
          </mxGeometry>
        </mxCell>
        <mxCell id="hUngqLsS5FqLCYvUKCZo-29" value="Yes" style="edgeLabel;html=1;align=center;verticalAlign=middle;resizable=0;points=[];" vertex="1" connectable="0" parent="hUngqLsS5FqLCYvUKCZo-25">
          <mxGeometry x="-0.6226" y="1" relative="1" as="geometry">
            <mxPoint as="offset" />
          </mxGeometry>
        </mxCell>
        <mxCell id="hUngqLsS5FqLCYvUKCZo-18" value="文案是否充足" style="rhombus;whiteSpace=wrap;html=1;" vertex="1" parent="1">
          <mxGeometry x="460" y="130" width="130" height="80" as="geometry" />
        </mxCell>
        <mxCell id="hUngqLsS5FqLCYvUKCZo-27" style="edgeStyle=orthogonalEdgeStyle;rounded=0;orthogonalLoop=1;jettySize=auto;html=1;exitX=0.5;exitY=1;exitDx=0;exitDy=0;entryX=0.5;entryY=0;entryDx=0;entryDy=0;" edge="1" parent="1" source="hUngqLsS5FqLCYvUKCZo-23" target="hUngqLsS5FqLCYvUKCZo-4">
          <mxGeometry relative="1" as="geometry" />
        </mxCell>
        <mxCell id="hUngqLsS5FqLCYvUKCZo-23" value="随机从剩余中补足" style="rounded=0;whiteSpace=wrap;html=1;" vertex="1" parent="1">
          <mxGeometry x="465" y="230" width="120" height="60" as="geometry" />
        </mxCell>
      </root>
    </mxGraphModel>
  </diagram>
</mxfile>
